<svg xmlns="http://www.w3.org/2000/svg" viewBox="0 0 49.08 93.5" id="kalash"><g data-name="Layer 2"><path fill="none" stroke="#231f20" stroke-linecap="round" stroke-linejoin="round" stroke-width="2" d="M34.51 15.48C34.15 7.25 27.53 1 24.54 1M24.54 1c-3 0-9.61 6.25-10 14.48"></path><path fill="none" stroke="#231f20" stroke-linejoin="round" stroke-width="2" d="M39.67,34.59A6.09,6.09,0,0,0,34,41.54c.61,3.21,3.63,5.24,6,7.43a25,25,0,0,1,7.25,12.41,26.41,26.41,0,0,1,.65,3.53,24.91,24.91,0,0,1-1.21,11C43.44,85.21,34.25,92.5,24.54,92.5S5.64,85.21,2.37,76a24.91,24.91,0,0,1-1.21-11,26.41,26.41,0,0,1,.65-3.53A25,25,0,0,1,9.06,49c2.39-2.19,5.41-4.22,6-7.43a6.09,6.09,0,0,0-5.67-6.95"></path><path fill="none" stroke="#231f20" stroke-linejoin="round" stroke-width="2" d="M47.63,65c-3.41,4.37-13,7.8-23.09,7.8S4.86,69.32,1.45,65"></path><path fill="none" stroke="#231f20" stroke-linejoin="round" stroke-width="2" d="M47.63,61c-.11.14-.23.29-.36.43-3.68,4.16-13,7.37-22.73,7.37s-19-3.21-22.73-7.37c-.13-.14-.25-.29-.36-.43"></path><path fill="none" stroke="#231f20" stroke-linecap="round" stroke-linejoin="round" stroke-width="2" d="M13.26 13.74s-9.74 13.11 0 13.11S13.26 13.74 13.26 13.74zM35.82 13.74s9.74 13.11 0 13.11S35.82 13.74 35.82 13.74z"></path><polygon fill="none" stroke="#231f20" stroke-linejoin="round" stroke-width="2" points="39.67 34.59 40.76 34.59 40.76 28.8 32.65 28.8 16.43 28.8 8.32 28.8 8.32 34.59 9.41 34.59 39.67 34.59"></polygon></g></svg>